ply
format ascii 1.0
comment Created by Blender 2.93.1 - www.blender.org
element vertex 32
property float x
property float y
property float z
property float s
property float t
element face 32
property list uchar uint vertex_indices
end_header
0.000000 -1.000000 -0.850000 0.025114 0.999880
0.866025 -0.500000 1.000000 0.333373 0.833253
0.000000 -1.000000 1.000000 0.333373 0.999880
0.716025 0.413397 -1.000000 0.396446 0.773673
0.000000 -0.826795 -1.000000 0.666966 0.305119
0.000000 0.826795 -1.000000 0.666966 0.929858
-0.866025 0.500000 1.000000 0.333613 0.250060
0.000000 -1.000000 1.000000 0.477916 0.000120
0.000000 1.000000 1.000000 0.477916 0.333373
-0.716025 -0.413397 -1.000000 0.937486 0.461303
-0.716025 0.413397 -1.000000 0.937486 0.773673
-0.866025 0.500000 -0.850000 0.025114 0.333373
-0.866025 -0.500000 1.000000 0.333373 0.166746
-0.866025 0.500000 1.000000 0.333373 0.333373
0.866025 -0.500000 -0.850000 0.025114 0.833254
0.866025 0.500000 1.000000 0.333373 0.666627
0.866025 -0.500000 1.000000 0.622219 0.083433
0.866025 0.500000 1.000000 0.622219 0.250060
0.866025 0.500000 -0.850000 0.025114 0.666627
0.000000 1.000000 1.000000 0.333373 0.500000
-0.866025 -0.500000 -0.850000 0.025114 0.166746
0.000000 -1.000000 1.000000 0.333373 0.000120
0.866025 -0.500000 -0.850000 0.339775 0.428584
0.000000 -1.000000 -0.850000 0.666966 0.239680
-0.866025 0.500000 -0.850000 0.994157 0.806392
0.716025 -0.413397 -1.000000 0.396446 0.461303
0.000000 1.000000 -0.850000 0.666966 0.995296
-0.866025 -0.500000 -0.850000 0.994157 0.428584
0.866025 0.500000 -0.850000 0.339775 0.806392
0.000000 1.000000 -0.850000 0.025114 0.500000
-0.866025 -0.500000 1.000000 0.333613 0.083433
0.000000 -1.000000 -0.850000 0.025114 0.000120
3 0 1 2
3 3 4 5
3 6 7 8
3 5 9 10
3 11 12 13
3 14 15 1
3 8 16 17
3 18 19 15
3 20 21 12
3 4 22 23
3 9 24 10
3 3 22 25
3 5 24 26
3 4 27 9
3 5 28 3
3 29 13 19
3 0 14 1
3 3 25 4
3 6 30 7
3 5 4 9
3 11 20 12
3 14 18 15
3 8 7 16
3 18 29 19
3 20 31 21
3 4 25 22
3 9 27 24
3 3 28 22
3 5 10 24
3 4 23 27
3 5 26 28
3 29 11 13
