ply
format ascii 1.0
comment Created by Blender 2.93.1 - www.blender.org
element vertex 18
property float x
property float y
property float z
property float s
property float t
element face 16
property list uchar uint vertex_indices
end_header
-1.000000 1.000000 -1.000000 0.184762 0.000100
0.000000 -1.000000 -2.000000 0.130676 0.315338
-1.000000 -1.000000 -1.000000 0.000100 0.184762
-1.000000 1.000000 -1.000000 0.999900 0.815238
-1.000000 -1.000000 1.000000 0.630576 0.815238
-1.000000 1.000000 1.000000 0.815238 0.630576
-1.000000 -1.000000 -1.000000 0.445914 0.999900
1.000000 -1.000000 1.000000 0.445914 0.630576
1.000000 1.000000 1.000000 0.630576 0.445914
1.000000 1.000000 -1.000000 0.815238 0.261252
1.000000 -1.000000 -1.000000 0.261252 0.445914
1.000000 -1.000000 -1.000000 0.261252 0.815238
0.000000 -1.000000 -2.000000 0.261252 0.999900
-1.000000 1.000000 -1.000000 0.999900 0.445914
0.000000 1.000000 -2.000000 0.999900 0.261252
0.000000 1.000000 -2.000000 0.315338 0.130676
1.000000 1.000000 -1.000000 0.445914 0.261252
-1.000000 -1.000000 -1.000000 0.815238 0.999900
3 0 1 2
3 3 4 5
3 6 7 4
3 8 4 7
3 9 5 8
3 10 8 7
3 11 6 12
3 13 9 14
3 10 15 16
3 0 15 1
3 3 17 4
3 6 11 7
3 8 5 4
3 9 13 5
3 10 16 8
3 10 1 15
